<svg xmlns="http://www.w3.org/2000/svg" viewBox="0 0 1000 1000" xml:space="preserve">
<switch><g><circle fill="#4CAF50" cx="500" cy="500" r="398"/><circle fill="#3e8e41" cx="500" cy="500" r="344.3"/><path fill="#382B73" d="M672.4 656.8v-.9c-.1-1.1-.1-2.2-.3-3.3 0-.3-.1-.6-.1-.9-.1-.8-.2-1.7-.3-2.5 0-.3-.1-.5-.1-.8 0-.2-.1-.3-.1-.5-.2-.9-.3-1.9-.5-2.8-.1-.5-.2-.9-.3-1.4v-.2c-.1-.6-.2-1.1-.4-1.6-.1-.5-.3-1.1-.4-1.6-5.9-22.2-21.3-40.5-41.6-50.3-.2-.1-.5-.2-.7-.3-10-4.7-21.3-7.4-33.1-7.4-4 0-8 .3-11.9.9a77.67 77.67 0 0 0-43.6 22.3L457.9 559l-34.4-19.7v-1.6c0-3.4-.2-6.8-.6-10.1.3-2.3.5-4.6.6-6.9 0-1 .1-2 .1-3.1 0-1.2 0-2.4-.1-3.5v-.9c-.1-1.1-.1-2.2-.3-3.3 0-.3-.1-.6-.1-.9-.1-.8-.2-1.7-.3-2.5-.1-.4-.1-.9-.2-1.3-.2-.9-.3-1.9-.5-2.8l-.3-1.5c-.1-.6-.2-1.1-.4-1.6-.1-.2-.1-.4-.2-.7l117.1-64.9c11.6 12.1 27 20.4 44.3 23.1 3.9.6 7.8.9 11.9.9 12 0 23.4-2.7 33.6-7.6.1 0 .2-.1.2-.1 21.3-10.3 37.3-30 42.4-53.7.3-1.6.6-3.1.9-4.7.4-2.9.7-5.8.8-8.8 0-1 .1-2 .1-3.1 0-1.2 0-2.4-.1-3.5v-.9c-.1-1.1-.1-2.2-.3-3.3 0-.3-.1-.6-.1-.9-.1-.8-.2-1.7-.3-2.5 0-.3-.1-.5-.1-.8 0-.2-.1-.3-.1-.5-.2-.9-.3-1.9-.5-2.8l-.3-1.2c0-.1-.1-.2-.1-.3-.1-.5-.2-1.1-.4-1.6-.1-.5-.3-1.1-.4-1.6-8.8-33.4-39.2-58-75.4-58-10.8 0-21 2.2-30.4 6.1-1.8.7-3.5 1.6-5.2 2.4-4.1 2.1-8.1 4.6-11.8 7.4-5.7 4.4-10.9 9.5-15.2 15.3-2.2 3-4.3 6.2-6.1 9.5-2.9 5.4-5.2 11.1-6.8 17.2-.1.5-.3 1.1-.4 1.6-.1.5-.3 1.1-.4 1.7l-.3 1.5c-.2.9-.4 1.9-.5 2.8 0 .2-.1.3-.1.5 0 .3-.1.5-.1.8-.1.8-.2 1.7-.3 2.5 0 .3-.1.6-.1.8l-.3 3.3v.9c-.1 1.2-.1 2.4-.1 3.5 0 1 0 2.1.1 3.1 0 .6.1 1.3.1 1.9.1 2.3.4 4.6.7 6.9.4 2.4.9 4.8 1.5 7.2l-2.3 1.3-114.8 63.6c-2.1-2.2-4.3-4.2-6.6-6.2-13.5-11.1-30.8-17.8-49.6-17.8-36.7 0-67.5 25.4-75.8 59.6-.1.5-.3 1.1-.4 1.6l-.3 1.5c-.2.9-.4 1.9-.5 2.8-.1.4-.1.9-.2 1.3-.1.8-.2 1.6-.3 2.5 0 .3-.1.6-.1.9l-.3 3.3v.9c-.1 1.2-.1 2.3-.1 3.5 0 1 0 2 .1 3 0 .6.1 1.3.1 1.9 1.2 19.5 9.7 37.1 22.7 50.2 2 2 4 3.8 6.2 5.5 4.2 3.4 8.7 6.3 13.5 8.8 1 .5 2 1 2.9 1.4 9.9 4.5 20.9 7.1 32.5 7.1 4 0 8-.3 11.9-.9 3.9-.6 7.7-1.5 11.3-2.6 2.8-.9 5.6-1.9 8.2-3.1 2-.9 3.9-1.8 5.7-2.8 2.2-1.2 4.4-2.5 6.4-3.9 1.5-1 2.9-2.1 4.4-3.2 2.6-2.1 5.2-4.3 7.5-6.7l10.9 6.2L519 639.8v.1c-.1.5-.3 1.1-.4 1.6-.1.5-.3 1.1-.4 1.7l-.3 1.5c-.2.9-.4 1.9-.5 2.8 0 .2-.1.3-.1.5 0 .3-.1.5-.1.8-.1.8-.2 1.7-.3 2.5 0 .3-.1.6-.1.8l-.3 3.3v.9c-.1 1.2-.1 2.4-.1 3.5 0 1 0 2.1.1 3.1 0 .6.1 1.3.1 1.9.1 2.3.4 4.6.7 6.9 5.1 33.6 31.7 60.1 65.2 65.2 3.9.6 7.8.9 11.9.9 12 0 23.4-2.7 33.6-7.6.1 0 .2-.1.2-.1 21.3-10.3 37.3-30 42.4-53.7.3-1.6.6-3.1.9-4.7.4-2.9.7-5.8.8-8.8 0-1 .1-2 .1-3.1.1-.7.1-1.9 0-3z"/><g><path fill="#FFF" d="M611.9 650.2c-3.7 6.4-10.4 10.1-17.4 10.1-3.4 0-6.8-.9-9.9-2.6l-172.7-98.9-76.3-43.7c-6.3-3.6-10.1-10.3-10.1-17.5.1-7.2 4-13.8 10.3-17.3l51.3-28.5 129.4-71.7 68.3-37.9c9.7-5.4 21.8-1.9 27.2 7.8 5.3 9.7 1.9 21.8-7.8 27.2l-76.7 42.5-112.6 62.4-28.6 15.9 37.2 21.3 181 103.6c9.5 5.5 12.8 17.7 7.4 27.3z"/><path fill="#D1D3D4" d="M611.9 650.2c5.5-9.6 2.2-21.8-7.4-27.3L386.2 498l217.9-120.8c9.7-5.4 13.2-17.5 7.8-27.2L345.5 497.7l266.4 152.5z"/><path fill="#BCBEC0" d="M423.5 517.7v1.6c-.3 14.4-4.5 27.9-11.6 39.4L335.6 515c-6.3-3.6-10.1-10.3-10.1-17.5.1-7.2 4-13.8 10.3-17.3l51.3-28.5c11.8 7.4 21.4 17.9 27.8 30.3 5.5 10.8 8.6 22.9 8.6 35.7z"/><circle fill="#FFF" cx="345.5" cy="497.7" r="78"/><path fill="#FFF" d="M345.5 429.7c41.4 0 75.2 32.3 77.8 73 .1-1.7.2-3.3.2-5 0-43.1-34.9-78-78-78s-78 34.9-78 78c0 1.7.1 3.3.2 5 2.6-40.7 36.4-73 77.8-73z"/><path fill="#FFF" d="M345.5 535.7c-36.2 0-66.6-24.6-75.4-58-1.7 6.4-2.6 13.1-2.6 20 0 43.1 34.9 78 78 78s78-34.9 78-78c0-6.9-.9-13.6-2.6-20-8.8 33.4-39.2 58-75.4 58z"/><path fill="#BCBEC0" d="m604.2 377.2-76.7 42.5c-6.9-11.6-11-25.1-11-39.6l68.3-37.9c9.7-5.4 21.8-1.9 27.2 7.8 5.3 9.7 1.9 21.8-7.8 27.2z"/><circle fill="#FFF" cx="594.5" cy="359.7" r="78"/><circle fill="#FFF" cx="594.5" cy="640.3" r="78"/><path fill="#FFF" d="M594.5 291.7c41.4 0 75.2 32.3 77.8 73 .1-1.7.2-3.3.2-5 0-43.1-34.9-78-78-78s-78 34.9-78 78c0 1.7.1 3.3.2 5 2.6-40.7 36.4-73 77.8-73z"/><path fill="#FFF" d="M594.5 397.7c-36.2 0-66.6-24.6-75.4-58-1.7 6.4-2.6 13.1-2.6 20 0 43.1 34.9 78 78 78s78-34.9 78-78c0-6.9-.9-13.6-2.6-20-8.8 33.4-39.2 58-75.4 58z"/><path fill="#FFF" d="M594.5 572.3c41.4 0 75.2 32.3 77.8 73 .1-1.7.2-3.3.2-5 0-43.1-34.9-78-78-78s-78 34.9-78 78c0 1.7.1 3.3.2 5 2.6-40.8 36.4-73 77.8-73z"/><path fill="#FFF" d="M594.5 678.3c-36.2 0-66.6-24.6-75.4-58-1.7 6.4-2.6 13.1-2.6 20 0 43.1 34.9 78 78 78s78-34.9 78-78c0-6.9-.9-13.6-2.6-20-8.8 33.4-39.2 58-75.4 58z"/></g></g></switch></svg>
